<svg id="ART" xmlns="http://www.w3.org/2000/svg" viewBox="0 0 791.49 106.22"><path d="M115.9,87.19v-62H93V11.27h62.56v14h-23v62Z" fill="#0063a3"/><path d="M141.94,87.19V32.8h16.52v8.83h.1c3-4.61,8.21-10.26,18.47-10.26h.51V46.05c-.61-.11-3.48-.31-4.51-.31a18.27,18.27,0,0,0-14.57,7.49v34Z" fill="#0063a3"/><path d="M182.77,25V11.78h16.62V25Zm.1,62.18V32.5h16.41V87.19Z" fill="#0063a3"/><path d="M205.74,87.19V32.5h16.52v8.62c3.28-4.31,9.33-9.75,18-9.75,9.13,0,13.44,3.8,15,9.75,3.28-4.21,9.44-9.75,18.05-9.75,11.08,0,16,7,16,16.73V87.19H272.73V52.51c0-4.93-1.13-7.49-6-7.49-4.1,0-7.39,2.26-11,5.44V87.19H239.29V52.51c0-4.93-1.13-7.49-5.95-7.49-4.11,0-7.39,2.26-11.08,5.44V87.19Z" fill="#0063a3"/><path d="M312,80.72v6.47H295.49V11.27H312V40.92c3.59-5,8.72-9.55,16.83-9.55,12.41,0,21,9.55,21,28.42S341.15,88,328.63,88C321.24,88,316.11,85.34,312,80.72ZM333.35,59.9c0-9.14-3.18-14.88-10.57-14.88-4.2,0-8,2.56-10.77,5.33V70.56c3.59,3.39,6.57,5,11,5C329.86,75.59,333.35,69.85,333.35,59.9Z" fill="#0063a3"/><path d="M355,87.19V11.27h16.41V87.19Z" fill="#0063a3"/><path d="M376.51,59.9c0-21.24,16.21-28.53,27.5-28.53S429.14,37,429.14,61.85v2.46H392.93c.82,9,5.84,12.51,12.72,12.51a25.16,25.16,0,0,0,16.21-6.56l6.36,9.85c-6.36,5.43-14.26,8.2-23.8,8.2C390.16,88.31,376.51,81,376.51,59.9Zm37.86-5.34c-.82-7.69-4.31-11.39-10.47-11.39-5.13,0-9.54,3.39-10.77,11.39Z" fill="#0063a3"/><path d="M432.26,81a6.19,6.19,0,0,1,6.26-6.26A6.26,6.26,0,1,1,432.26,81Zm11.38,0a5.14,5.14,0,1,0-5.12,5.23A5.13,5.13,0,0,0,443.64,81Zm-7.55-3.56h2.56c1.62,0,2.57.7,2.57,2.1a1.83,1.83,0,0,1-1.35,1.94l1.48,2.81h-1.43l-1.37-2.62h-1.08v2.62h-1.38Zm2.48,3.18c.84,0,1.3-.27,1.3-1s-.46-1-1.32-1h-1.08v2Z" fill="#0063a3"/><path d="M6.19,76.41V100L26.71,88.16A39.1,39.1,0,0,1,6.19,76.41Z" fill="#0063a3"/><path d="M26.56,11.74,6.19,0V23.45A39.33,39.33,0,0,1,26.56,11.74Z" fill="#0063a3"/><path d="M92.8,50,72.29,38.16a39.27,39.27,0,0,1-.06,23.72Z" fill="#0063a3"/><path d="M19.7,17.92c2.94-.65,9.05,0,12.28.89a18.68,18.68,0,0,1,10.37-3.45A41.12,41.12,0,0,0,19.7,17.92Z" fill="#0063a3"/><path d="M58.79,60.84a53.07,53.07,0,0,0-3.21-13.13c-7,3.18-15.72,1.13-21.53-3.9A95.93,95.93,0,0,0,22.62,58.32C32.47,66.35,48.67,68.46,58.79,60.84Z" fill="#0063a3"/><path d="M17.23,59.09C8.55,50.19,5.52,37.22,8.3,27.25a35,35,0,0,0,2,47.47A63.4,63.4,0,0,1,17.23,59.09Z" fill="#0063a3"/><path d="M54,43.94a47.18,47.18,0,0,0-7-10.78A80.73,80.73,0,0,0,37,40.93C42.26,45.3,49.14,46.16,54,43.94Z" fill="#0063a3"/><path d="M47.47,27.72a36.33,36.33,0,0,1,7.62-4.23c-5.56-5.62-14.5-5.47-18.39-3A37.17,37.17,0,0,1,47.47,27.72Z" fill="#0063a3"/><path d="M20.4,62c-4.32,7.47-5.9,13-6.48,15.87A35,35,0,0,0,57.1,77a30,30,0,0,0,2-11.33C47.14,72.79,30.66,70.07,20.4,62Z" fill="#0063a3"/><path d="M57.4,41.45c3.83-4,3.06-10.84.15-14.78a29.6,29.6,0,0,0-7.13,4.18A52.73,52.73,0,0,1,57.4,41.45Z" fill="#0063a3"/><path d="M64,32.85a14.1,14.1,0,0,1-4.84,12.59A57.37,57.37,0,0,1,62.49,57.2C67.74,50.38,67.58,40.64,64,32.85Z" fill="#0063a3"/><path d="M34.16,37.9A83.13,83.13,0,0,1,44,30.11a33.17,33.17,0,0,0-10.82-6.59C29.92,27.89,30.92,33.53,34.16,37.9Z" fill="#0063a3"/><path d="M63.12,62.69a49.42,49.42,0,0,1-.43,8.88A35.37,35.37,0,0,0,70,47.07,26.82,26.82,0,0,1,63.12,62.69Z" fill="#0063a3"/><path d="M29.1,22.28a28.42,28.42,0,0,0-13.9.09c-6.89,9.77-3.69,24.08,4.33,33A100.8,100.8,0,0,1,31.18,40.79C27.1,35.72,25.48,27.89,29.1,22.28Z" fill="#0063a3"/><path d="M466.8,17.68h40.69v6.2h-34v24h25.19v6H473.47V87.23H466.8Z" fill="#0063a3"/><path d="M505.33,62.51c0-16.54,10.25-25.75,22.47-25.75S550.17,46,550.17,62.51,539.92,88.27,527.8,88.27,505.33,79,505.33,62.51Zm38.35-.09c0-10.81-5.45-20.12-15.88-20.12-10.06,0-16,8.46-16,20.12,0,11,5.36,20.3,16,20.3C537.76,82.72,543.68,74.36,543.68,62.42Z" fill="#0063a3"/><path d="M559.21,37.7h6.49v9.77h.19c3.85-6.11,9.87-10.71,19.64-10.71h1.13l-.66,6-2-.09c-8.09,0-14.48,4.51-18.33,12.31V87.23h-6.49Z" fill="#0063a3"/><path d="M588.5,62.42c0-17.58,11.28-25.66,21.72-25.66,11.56,0,20.21,8.83,20.21,25.75v1.23H595c.09,12.21,7,19.08,15.6,19.08,7.43,0,11.66-3.2,15.42-9l4,3.2c-4.32,7-10.43,11.28-19.83,11.28C598.66,88.27,588.5,79.34,588.5,62.42Zm35.63-3.85c-.66-9.4-5.17-16.36-14-16.36-7.14,0-13.81,5.17-15,16.36Z" fill="#0063a3"/><path d="M636.22,79.34l4.13-3.76a19.38,19.38,0,0,0,15.42,7.14c8.46,0,12.87-3.1,12.87-8.65S664.7,66.46,655,64.21c-11.38-2.83-17.21-5.83-17.21-14.48,0-7,6.11-13,16.83-13,8.46,0,13.91,2.82,18.33,7.14l-3.67,4.33a19.75,19.75,0,0,0-14.47-6.11c-7.71,0-10.72,3.57-10.72,7.33,0,4.79,3.39,6.77,12,8.83,12.41,3,18.8,6,18.8,15.7,0,9-8.08,14.19-19.27,14.19C646.84,88.17,640,84.41,636.22,79.34Z" fill="#0063a3"/><path d="M688.06,75.67V43.24h-8.65V37.7h8.65V19.93h6.48V37.7h12.88v5.54H694.54V74.36c0,5.26,1.7,8.08,7.81,8.08a17.31,17.31,0,0,0,5.17-.66v5.55a39.74,39.74,0,0,1-6.4.56C691.63,87.89,688.06,84.23,688.06,75.67Z" fill="#0063a3"/><path d="M715,37.7h6.48v9.77h.19c3.85-6.11,9.87-10.71,19.65-10.71h1.12l-.65,6-2-.09c-8.08,0-14.47,4.51-18.33,12.31V87.23H715Z" fill="#0063a3"/><path d="M745.43,105.19l1.51-5.36a26.77,26.77,0,0,0,6.86.75c5.36,0,8.08-2.35,10.15-7.61L766,87.52,746.84,37.7h7l15.41,41.83h.19L784.72,37.7h6.77L770.15,93c-3.29,8.83-7,13.25-16.54,13.25A28.58,28.58,0,0,1,745.43,105.19Z" fill="#0063a3"/></svg>